<svg width="82" height="40" viewBox="0 0 82 40" fill="none" xmlns="http://www.w3.org/2000/svg">
<path d="M0 0H76C79.3137 0 82 2.68629 82 6V34C82 37.3137 79.3137 40 76 40H0V0Z" fill="#E23535"/>
<path d="M23.4307 26V16.165H23.5713L30.4531 26H31.9912V13.3174H30.4268V23.1875H30.2861L23.4043 13.3174H21.8662V26H23.4307ZM43.083 24.5762H36.8076V20.2168H42.7578V18.8105H36.8076V14.7412H43.083V13.3174H35.2256V26H43.083V24.5762ZM52.9883 15.9893H53.0938L56.0117 26H57.5059L60.96 13.3174H59.3076L56.7852 23.627H56.6797L53.8408 13.3174H52.2412L49.4023 23.627H49.2969L46.7744 13.3174H45.1221L48.5762 26H50.0703L52.9883 15.9893Z" fill="white"/>
</svg>
