<svg width="97" height="16" viewBox="0 0 97 16" fill="none" xmlns="http://www.w3.org/2000/svg" id="pizzaname">
<path d="M1.57099 5.5341V0H0V12.5957H1.57099V6.79105H1.93756L7.62804 12.5957H9.70524L3.29035 6.06656L9.19903 0H7.22656L1.93756 5.5341H1.57099Z" fill="#191919"/>
<path d="M11.7301 16C13.3971 16 14.1477 15.3541 14.9506 13.1718L18.625 3.18603H17.0278L14.4531 10.9285H14.3135L11.7301 3.18603H10.1067L13.5891 12.6045L13.4145 13.1631C13.0218 14.2979 12.5505 14.7081 11.6864 14.7081C11.477 14.7081 11.2413 14.6994 11.058 14.6645V15.9476C11.2675 15.9825 11.5293 16 11.7301 16Z" fill="#191919"/>
<path d="M26.4363 11.3388H21.7931V11.1991C22.2383 10.6143 22.4826 9.61047 22.5699 8.46699L22.8667 4.44299H26.4363V11.3388ZM20.6673 15.0835V12.5957H28.0247V15.0835H29.4386V11.3388H27.9375V3.18603H21.5226L21.156 8.43208C21.0687 9.69776 20.7284 10.8849 20.0389 11.3388H19.2534V15.0835H20.6673Z" fill="#191919"/>
<path d="M34.3174 11.4435C33.2265 11.4435 32.4148 10.8849 32.4148 9.92471C32.4148 8.982 33.0432 8.48445 34.4745 8.38843L37.0056 8.22259V9.08674C37.0056 10.431 35.8622 11.4435 34.3174 11.4435ZM34.0381 12.7616C35.2949 12.7616 36.3248 12.2117 36.9358 11.2079H37.0754V12.5957H38.5067V6.15385C38.5067 4.19858 37.2238 3.02019 34.9284 3.02019C32.921 3.02019 31.4373 4.01528 31.2365 5.52537H32.7552C32.9646 4.78342 33.7501 4.3557 34.876 4.3557C36.2812 4.3557 37.0056 4.99291 37.0056 6.15385V7.00927L34.2913 7.17512C32.1006 7.30606 30.8613 8.27496 30.8613 9.95963C30.8613 11.6792 32.2141 12.7616 34.0381 12.7616Z" fill="#191919"/>
<path d="M52.602 12.5957H54.1032V3.18603H46.4926V12.5957H47.9938V4.44299H52.602V12.5957Z" fill="#191919"/>
<path d="M58.5893 12.5957L63.276 5.57774H63.4157V12.5957H64.9169V3.18603H63.4157L58.7289 10.204H58.5893V3.18603H57.0881V12.5957H58.5893Z" fill="#191919"/>
<path d="M76.9349 15.0835V11.3388H75.4338V3.18603H73.9326V11.3388H69.4116V3.18603H67.9105V12.5957H75.5211V15.0835H76.9349Z" fill="#191919"/>
<path d="M87.9319 15.0835V11.3388H86.4307V3.18603H84.9295V11.3388H80.4086V3.18603H78.9074V12.5957H86.518V15.0835H87.9319Z" fill="#191919"/>
<path d="M92.8107 11.4435C91.7197 11.4435 90.908 10.8849 90.908 9.92471C90.908 8.982 91.5364 8.48445 92.9678 8.38843L95.4988 8.22259V9.08674C95.4988 10.431 94.3555 11.4435 92.8107 11.4435ZM92.5314 12.7616C93.7882 12.7616 94.8181 12.2117 95.429 11.2079H95.5686V12.5957H97V6.15385C97 4.19858 95.717 3.02019 93.4216 3.02019C91.4142 3.02019 89.9305 4.01528 89.7298 5.52537H91.2484C91.4579 4.78342 92.2434 4.3557 93.3693 4.3557C94.7744 4.3557 95.4988 4.99291 95.4988 6.15385V7.00927L92.7845 7.17512C90.5938 7.30606 89.3545 8.27496 89.3545 9.95963C89.3545 11.6792 90.7073 12.7616 92.5314 12.7616Z" fill="#191919"/>
</svg>
