<svg width="301" height="350" viewBox="0 0 301 350" fill="none" xmlns="http://www.w3.org/2000/svg">
<g filter="url(#filter0_d_236_29528)">
<mask id="path-1-inside-1_236_29528" fill="white">
<path fill-rule="evenodd" clip-rule="evenodd" d="M144.062 12.1675L150.041 6.54317C150.847 5.78557 152.114 5.82521 152.87 6.63167L158.063 12.1675H281C287.627 12.1675 293 17.5401 293 24.1675V328C293 334.628 287.627 340 281 340H20C13.3726 340 8 334.628 8 328V24.1675C8 17.5401 13.3726 12.1675 20 12.1675H144.062Z"/>
</mask>
<path fill-rule="evenodd" clip-rule="evenodd" d="M144.062 12.1675L150.041 6.54317C150.847 5.78557 152.114 5.82521 152.87 6.63167L158.063 12.1675H281C287.627 12.1675 293 17.5401 293 24.1675V328C293 334.628 287.627 340 281 340H20C13.3726 340 8 334.628 8 328V24.1675C8 17.5401 13.3726 12.1675 20 12.1675H144.062Z" fill="white"/>
<path d="M144.062 12.1676V13.1676H144.459L144.747 12.8959L144.062 12.1676ZM150.041 6.54326L149.356 5.81488V5.81488L150.041 6.54326ZM152.87 6.63175L152.141 7.31587V7.31588L152.87 6.63175ZM158.063 12.1676L157.333 12.8517L157.63 13.1676H158.063V12.1676ZM144.747 12.8959L150.726 7.27163L149.356 5.81488L143.377 11.4392L144.747 12.8959ZM150.726 7.27164C151.129 6.89282 151.763 6.91266 152.141 7.31587L153.6 5.94763C152.465 4.73793 150.564 4.67849 149.356 5.81488L150.726 7.27164ZM152.141 7.31588L157.333 12.8517L158.792 11.4834L153.6 5.94763L152.141 7.31588ZM158.063 13.1676H281V11.1676H158.063V13.1676ZM281 13.1676C287.075 13.1676 292 18.0924 292 24.1676H294C294 16.9879 288.18 11.1676 281 11.1676V13.1676ZM292 24.1676V328.001H294V24.1676H292ZM292 328.001C292 334.076 287.075 339.001 281 339.001V341.001C288.18 341.001 294 335.18 294 328.001H292ZM281 339.001H20V341.001H281V339.001ZM20 339.001C13.9249 339.001 9 334.076 9 328.001H7C7 335.18 12.8203 341.001 20 341.001V339.001ZM9 328.001V24.1676H7V328.001H9ZM9 24.1676C9 18.0924 13.9249 13.1676 20 13.1676V11.1676C12.8203 11.1676 7 16.9879 7 24.1676H9ZM20 13.1676H144.062V11.1676H20V13.1676Z" fill="#F0F0F0" mask="url(#path-1-inside-1_236_29528)"/>
</g>
<defs>
<filter id="filter0_d_236_29528" x="0" y="0" width="301" height="350" filterUnits="userSpaceOnUse" color-interpolation-filters="sRGB">
<feFlood flood-opacity="0" result="BackgroundImageFix"/>
<feColorMatrix in="SourceAlpha" type="matrix" values="0 0 0 0 0 0 0 0 0 0 0 0 0 0 0 0 0 0 127 0" result="hardAlpha"/>
<feOffset dy="2"/>
<feGaussianBlur stdDeviation="4"/>
<feComposite in2="hardAlpha" operator="out"/>
<feColorMatrix type="matrix" values="0 0 0 0 0.0980392 0 0 0 0 0.0980392 0 0 0 0 0.0980392 0 0 0 0.1 0"/>
<feBlend mode="normal" in2="BackgroundImageFix" result="effect1_dropShadow_236_29528"/>
<feBlend mode="normal" in="SourceGraphic" in2="effect1_dropShadow_236_29528" result="shape"/>
</filter>
</defs>
</svg>
