<svg width="65" height="32" viewBox="0 0 65 32" fill="none" xmlns="http://www.w3.org/2000/svg">
<path d="M0 0H59C62.3137 0 65 2.68629 65 6V26C65 29.3137 62.3137 32 59 32H0V0Z" fill="#E23535"/>
<path d="M20.0766 10.8182H18.6249L21.9062 15.9091L18.6249 21H20.0766L22.7016 16.8438H22.7812L25.4062 21H26.8579L23.6562 15.9091L26.8579 10.8182H25.4062L22.7812 15.054H22.7016L20.0766 10.8182ZM28.4624 10.8182V21H29.6556L35.2039 13.0057H35.3034V21H36.5363V10.8182H35.3431L29.7749 18.8324H29.6755V10.8182H28.4624ZM38.4466 11.9119H41.6483V21H42.8813V11.9119H46.083V10.8182H38.4466V11.9119Z" fill="white"/>
</svg>
