<svg width="65" height="32" viewBox="0 0 65 32" fill="none" xmlns="http://www.w3.org/2000/svg">
<path d="M0 0H59C62.3137 0 65 2.68629 65 6V26C65 29.3137 62.3137 32 59 32H0V0Z" fill="#E23535"/>
<path d="M25.7082 10.8182H24.4951V18.8324H24.3957L18.8275 10.8182H17.6343V21H18.8673V13.0057H18.9667L24.515 21H25.7082V10.8182ZM28.1753 21H34.3998V19.9062H29.4083V16.446H34.002V15.3523H29.4083V11.9119H34.3202V10.8182H28.1753V21ZM38.392 21H39.6647L41.9118 12.8864H41.9914L44.2385 21H45.5113L48.2954 10.8182H47.0425L44.9147 19.1108H44.8153L42.6476 10.8182H41.2556L39.088 19.1108H38.9885L36.8607 10.8182H35.6079L38.392 21Z" fill="white"/>
</svg>
